<!-- Copyright 2000-2023 JetBrains s.r.o. and contributors. Use of this source code is governed by the Apache 2.0 license. -->
<svg width="16" height="16" viewBox="0 0 16 16" fill="none" xmlns="http://www.w3.org/2000/svg">
<path d="M14 4C14 2.89543 13.1046 2 12 2H4C2.89543 2 2 2.89543 2 4V12C2 13.1046 2.89543 14 4 14H12C13.1046 14 14 13.1046 14 12V4Z" fill="#3574F0"/>
<path d="M3.13501 5.99999H7.87171V6.99999H6V12H5V6.99999H3.13501V5.99999Z" fill="white"/>
<path d="M10.6833 12.0902C10.2587 12.0902 9.8825 12.0133 9.55475 11.8594C9.227 11.7026 8.9705 11.486 8.78525 11.2096C8.6 10.9303 8.50595 10.6111 8.5031 10.252H9.51627C9.51627 10.4401 9.56615 10.6082 9.6659 10.7564C9.76565 10.9046 9.90387 11.02 10.0806 11.1027C10.2601 11.1825 10.4653 11.2224 10.6962 11.2224C10.9213 11.2224 11.1194 11.1853 11.2904 11.1112C11.4614 11.0371 11.5925 10.9331 11.6837 10.7992C11.7777 10.6624 11.8248 10.5056 11.8248 10.3289C11.8248 10.1066 11.7578 9.91567 11.6238 9.75607C11.4899 9.59362 11.3118 9.49387 11.0895 9.45682L10.0763 9.28582C9.7856 9.23452 9.53337 9.13192 9.31962 8.97802C9.10587 8.82412 8.94057 8.63175 8.82372 8.4009C8.70972 8.1672 8.65272 7.91212 8.65272 7.63567C8.65272 7.30507 8.73822 7.00867 8.90922 6.74647C9.08307 6.48142 9.3239 6.2748 9.6317 6.1266C9.9395 5.97555 10.2872 5.90002 10.6748 5.90002C11.0709 5.90002 11.4229 5.9727 11.7307 6.11805C12.0414 6.2634 12.2836 6.46575 12.4575 6.7251C12.6313 6.98445 12.7197 7.28085 12.7225 7.6143H11.7093C11.7093 7.45185 11.6666 7.3065 11.5811 7.17825C11.4956 7.04715 11.3759 6.94597 11.222 6.87472C11.0681 6.80347 10.89 6.76785 10.6876 6.76785C10.4853 6.76785 10.3071 6.80205 10.1532 6.87045C9.99935 6.93885 9.87965 7.03575 9.79415 7.16115C9.70865 7.28655 9.6659 7.4319 9.6659 7.5972C9.6659 7.791 9.7286 7.95915 9.854 8.10165C9.9794 8.2413 10.1433 8.32822 10.3456 8.36242L11.3417 8.52487C11.6352 8.57617 11.896 8.6859 12.124 8.85405C12.3549 9.0222 12.533 9.23167 12.6584 9.48247C12.7838 9.73327 12.8465 9.99975 12.8465 10.2819C12.8465 10.6239 12.7553 10.9331 12.5729 11.2096C12.3905 11.4832 12.1354 11.6983 11.8077 11.8551C11.4799 12.0118 11.1051 12.0902 10.6833 12.0902Z" fill="white"/>
</svg>
