<svg width="16" height="16" viewBox="0 0 16 16" fill="none" xmlns="http://www.w3.org/2000/svg">
<path d="M11 2C11.5523 2 12 2.44772 12 3V9H4V6H6C7.10457 6 8 5.10457 8 4V2H11Z" fill="#EDF3FF"/>
<path d="M7 4C7 4.06893 6.99277 4.13617 6.97949 4.20117C6.88625 4.65686 6.48325 5 6 5H4.41406L7 2.41406V4Z" fill="#EDF3FF"/>
<path fill-rule="evenodd" clip-rule="evenodd" d="M11 1C12.1046 1 13 1.89543 13 3V9H12V3C12 2.44772 11.5523 2 11 2H8V4C8 5.10457 7.10457 6 6 6H4V9H3V5.41406C3.00004 5.1489 3.10547 4.89453 3.29297 4.70703L6.70703 1.29297C6.89453 1.10547 7.1489 1.00004 7.41406 1H11ZM4.41406 5H6C6.55228 5 7 4.55228 7 4V2.41406L4.41406 5Z" fill="#3574F0"/>
<path d="M8.62891 10C8.92695 10.0714 9.18004 10.1986 9.3877 10.3828C9.72655 10.678 9.8988 11.0772 9.9043 11.5801H8.87891C8.87888 11.3452 8.8023 11.1624 8.64941 11.0312C8.49641 10.8946 8.28058 10.8262 8.00195 10.8262C7.73409 10.8262 7.52553 10.8889 7.37793 11.0146C7.23059 11.1404 7.15723 11.3185 7.15723 11.5479C7.15731 11.7554 7.21207 11.9326 7.32129 12.0801C7.43609 12.2222 7.60028 12.3237 7.81348 12.3838L8.52637 12.5811C9.00193 12.7013 9.36573 12.9169 9.61719 13.2285C9.86856 13.5346 9.99413 13.9145 9.99414 14.3682C9.99414 14.7071 9.91205 15.0081 9.74805 15.2705C9.58406 15.5273 9.35466 15.7271 9.05957 15.8691C8.94764 15.923 8.82814 15.9666 8.70117 16H7.32227C7.19121 15.9677 7.0672 15.9292 6.95215 15.877C6.65149 15.7403 6.41888 15.5464 6.25488 15.2949C6.09635 15.038 6.01426 14.737 6.00879 14.3926H7.03418C7.03418 14.6386 7.12194 14.8325 7.29688 14.9746C7.47726 15.1112 7.7203 15.1797 8.02637 15.1797C8.32149 15.1797 8.55087 15.1113 8.71484 14.9746C8.88425 14.8379 8.96875 14.6497 8.96875 14.4092C8.96875 14.2071 8.90914 14.0323 8.78906 13.8848C8.67436 13.7318 8.50746 13.6279 8.28906 13.5732L7.59961 13.3838C7.12961 13.2635 6.76567 13.0479 6.50879 12.7363C6.25745 12.4248 6.13184 12.0472 6.13184 11.6045C6.13188 11.2657 6.20831 10.9701 6.36133 10.7188C6.51439 10.4674 6.73104 10.2733 7.00977 10.1367C7.13364 10.0772 7.26759 10.0336 7.41016 10H8.62891Z" fill="#6C707E"/>
<path fill-rule="evenodd" clip-rule="evenodd" d="M5.25781 16H4.20801L3.87988 14.5488H2.28906L1.96094 16H0.912109L2.4209 10.0137H3.74121L5.25781 16ZM2.99414 11.3838C2.95589 11.5968 2.90441 11.8345 2.83887 12.0967L2.47754 13.7119H3.69141L3.33105 12.1055C3.27095 11.8377 3.21852 11.5969 3.1748 11.3838C3.13113 11.1654 3.10138 11.0066 3.08496 10.9082C3.06855 11.0066 3.03782 11.1654 2.99414 11.3838Z" fill="#6C707E"/>
<path d="M12.7139 11.916C12.774 12.1073 12.8231 12.2829 12.8613 12.4414C12.8995 12.5995 12.9236 12.7141 12.9346 12.7852C12.9455 12.7141 12.9706 12.5996 13.0088 12.4414C13.0471 12.2829 13.0938 12.1073 13.1484 11.916L13.7061 10.0137H14.9189V16H13.96V14.1387C13.96 13.8654 13.968 13.5675 13.9844 13.2451C14.0008 12.9226 14.0201 12.5998 14.042 12.2773C14.0639 11.9548 14.0879 11.6481 14.1152 11.3584C14.148 11.069 14.1754 10.8151 14.1973 10.5967L13.3936 13.4248H12.459L11.6309 10.5967C11.6582 10.8043 11.6856 11.05 11.7129 11.334C11.7402 11.6128 11.7652 11.9138 11.7871 12.2363C11.8144 12.5533 11.8361 12.8762 11.8525 13.2041C11.8689 13.532 11.877 13.8436 11.877 14.1387V16H10.918V10.0137H12.1309L12.7139 11.916Z" fill="#6C707E"/>
</svg>
