<svg width="20" height="20" viewBox="0 0 20 20" fill="none" xmlns="http://www.w3.org/2000/svg">
    <path d="M6.522 2H13.478C15.9764 2 18 4.02364 18 6.51798V13.478C18 15.9764 15.9764 18 13.478 18H6.522C4.02364 18 2 15.9764 2 13.478V6.51798C2 4.02364 4.02364 2 6.522 2Z"
          fill="url(#paint0_linear_25_107)"/>
    <path d="M16.1817 9.91753C16.1817 13.3734 13.3776 16.1775 9.91772 16.1775C6.45782 16.1775 3.65771 13.3734 3.65771 9.91753C3.65771 6.45763 6.45782 3.6535 9.91772 3.6535C13.3776 3.6535 16.1817 6.45763 16.1817 9.91753Z"
          fill="url(#paint1_linear_25_107)" stroke="url(#paint2_linear_25_107)" stroke-width="0.650176"/>
    <path fill-rule="evenodd" clip-rule="evenodd"
          d="M6.42145 6.36514C6.50996 6.29675 6.62261 6.28065 6.71917 6.2887L11.0762 6.29675C11.2935 6.29675 11.3619 6.32491 11.5027 6.37319C11.7199 6.4456 11.8607 6.56227 12.0096 6.73527L12.0176 6.74332L12.263 7.03298C12.2711 7.04103 12.2711 7.04103 12.2791 7.04103C12.2872 7.07321 12.3073 7.08126 12.3234 7.09735V7.1054C12.3596 7.15367 12.4119 7.22207 12.4722 7.29448C12.6452 7.49966 12.8746 7.78933 12.9872 7.906C13.0838 8.01865 13.1803 8.13532 13.2769 8.23992C14.0976 9.1411 14.4959 9.92159 13.5907 10.9757C14.5321 12.0619 14.0453 13.5464 12.5929 13.5464H8.50946C8.39279 13.5464 8.3083 13.5022 8.23589 13.4298L6.3772 11.4061C6.24846 11.2653 6.26455 11.0682 6.41341 10.9515C6.56226 10.8348 6.77951 10.8509 6.90825 10.9837L8.08703 12.2671C8.23589 12.432 8.39279 12.597 8.54165 12.77C8.6905 12.9349 8.7951 12.8947 9.00431 12.8947H12.8907C13.1964 12.8947 13.4499 12.6573 13.4499 12.3596V11.8326C13.4499 11.5349 13.1964 11.2975 12.8907 11.2975H10.5331C10.509 11.2975 10.4888 11.2975 10.4647 11.3055H8.49739C8.39681 11.3055 8.29623 11.2613 8.22784 11.1808L6.3772 9.17329C6.24846 9.04052 6.26455 8.83534 6.41341 8.71867C6.56226 8.60603 6.77951 8.62212 6.90825 8.75086C7.04906 8.91581 7.19792 9.07271 7.34678 9.22961C7.74104 9.65606 8.13933 10.0785 8.52555 10.513C8.68246 10.694 8.78706 10.6458 9.01235 10.6458H12.6211C12.7338 10.6458 12.8142 10.6538 12.8826 10.6458H12.8907C13.1964 10.6458 13.4499 10.4084 13.4499 10.1187V9.58365C13.4499 9.3141 13.2326 9.08076 12.943 9.05662C12.8464 9.04052 12.7337 9.04857 12.6573 9.04857H10.5331C10.525 9.04857 10.517 9.04857 10.509 9.05662C9.89744 9.04857 9.28592 9.04857 8.67441 9.04857H8.62211C8.50946 9.05662 8.40084 9.01639 8.3244 8.9319L6.3772 6.82378C6.25651 6.68699 6.2726 6.47779 6.42145 6.36514ZM11.2251 6.96459C11.2573 6.96459 11.2653 6.97263 11.2854 6.97263C11.2935 6.98068 11.3015 6.98068 11.3096 6.98068C11.4423 7.03298 11.7561 7.42725 12.0458 7.79738C12.1665 7.95428 12.2791 8.10313 12.4199 8.25199C12.5326 8.37268 12.4883 8.38073 12.3234 8.38073C11.2331 8.37268 10.1388 8.37268 9.04856 8.37268C8.77096 8.37268 8.7428 8.40487 8.55372 8.1836C8.48935 8.11923 8.429 8.05083 8.3767 7.99451C8.1514 7.7491 7.92208 7.49162 7.68874 7.24621C7.65253 7.20597 7.46747 7.04103 7.46747 6.98873C7.45942 6.9324 7.66863 6.94849 7.70483 6.94849C8.0468 6.95654 8.39279 6.94849 8.72671 6.94849C9.47904 6.94849 10.2354 6.94045 10.9877 6.95654C11.0239 6.95654 11.205 6.95654 11.2251 6.96459Z"
          fill="white"/>
    <defs>
        <linearGradient id="paint0_linear_25_107" x1="10.0007" y1="1.99972" x2="10.0007" y2="17.9985"
                        gradientUnits="userSpaceOnUse">
            <stop stop-color="#41A1F5"/>
            <stop offset="1" stop-color="#336AE7"/>
        </linearGradient>
        <linearGradient id="paint1_linear_25_107" x1="9.91833" y1="3.31914" x2="9.91833" y2="16.5142"
                        gradientUnits="userSpaceOnUse">
            <stop stop-color="#41A1F5"/>
            <stop offset="1" stop-color="#336AE7"/>
        </linearGradient>
        <linearGradient id="paint2_linear_25_107" x1="9.91833" y1="3.31914" x2="9.91833" y2="16.5142"
                        gradientUnits="userSpaceOnUse">
            <stop stop-color="#41A1F5"/>
            <stop offset="1" stop-color="#336AE7"/>
        </linearGradient>
    </defs>
</svg>
