<svg xmlns="http://www.w3.org/2000/svg" width="16px" height="16px" viewBox="0 0 16 16" version="1.1">
    <path style=" stroke:none;fill-rule:evenodd;fill:rgb(95.686275%,68.627451%,23.921569%);fill-opacity:0.701961;"
          d="M 1 15.898438 L 16 15.898438 L 16 8.898438 L 1 8.898438 Z M 1 15.898438 "/>
    <path style=" stroke:none;fill-rule:evenodd;fill:rgb(60.392157%,65.490196%,69.019608%);fill-opacity:0.8;"
          d="M 7 1 L 3 5 L 7 5 Z M 7 1 "/>
    <path style=" stroke:none;fill-rule:evenodd;fill:rgb(60.392157%,65.490196%,69.019608%);fill-opacity:0.8;"
          d="M 8 1 L 8 6 L 3 6 L 3 8 L 13 8 L 13 1 Z M 8 1 "/>
    <path style=" stroke:none;fill-rule:nonzero;fill:rgb(16.862745%,16.470588%,16.078431%);fill-opacity:0.701961;"
          d="M 4.101562 14.898438 L 4.101562 10.800781 L 2.800781 10.800781 L 2.800781 9.898438 L 6.300781 9.898438 L 6.300781 10.699219 L 5 10.699219 L 5 14.800781 L 4.101562 14.800781 Z M 6.898438 14.898438 L 6.898438 9.898438 L 7.800781 9.898438 L 7.800781 14 L 10 14 L 10 14.800781 L 6.898438 14.800781 Z M 10.601562 9.898438 L 12.300781 9.898438 C 12.601562 9.898438 12.898438 9.898438 13.101562 9.898438 C 13.300781 9.898438 13.398438 10 13.601562 10.101562 C 13.699219 10.199219 13.800781 10.300781 13.898438 10.5 C 14 10.800781 14 11 14 11.199219 C 14 11.398438 13.898438 11.601562 13.800781 11.800781 C 13.699219 12 13.5 12.101562 13.398438 12.199219 C 13.699219 12.300781 13.898438 12.398438 14 12.699219 C 14.101562 12.898438 14.199219 13.199219 14.199219 13.398438 C 14.199219 13.601562 14.199219 13.800781 14.101562 14.101562 C 14 14.300781 13.898438 14.5 13.699219 14.601562 C 13.5 14.699219 13.300781 14.800781 13.101562 14.800781 C 13 14.800781 12.601562 14.800781 12 14.800781 L 10.5 14.800781 L 10.5 9.898438 Z M 11.5 10.800781 L 11.5 11.898438 L 12.101562 11.898438 C 12.398438 11.898438 12.699219 11.898438 12.699219 11.898438 C 12.898438 11.898438 13 11.800781 13.101562 11.699219 C 13.199219 11.601562 13.199219 11.5 13.199219 11.300781 C 13.199219 11.101562 13.199219 11 13.101562 10.898438 C 13 10.800781 12.898438 10.699219 12.800781 10.699219 C 12.699219 10.699219 12.5 10.699219 12 10.699219 L 11.5 10.699219 Z M 11.5 12.699219 L 11.5 14 L 12.300781 14 C 12.601562 14 12.800781 14 12.898438 14 C 13 14 13.101562 13.898438 13.199219 13.800781 C 13.300781 13.699219 13.300781 13.601562 13.300781 13.398438 C 13.300781 13.199219 13.300781 13.101562 13.199219 13 C 13.101562 12.898438 13 12.800781 12.898438 12.800781 C 12.800781 12.800781 12.5 12.699219 12.101562 12.699219 Z M 11.5 12.699219 "/>
</svg>
