<?xml version="1.0" encoding="UTF-8"?>
<svg xmlns="http://www.w3.org/2000/svg" width="16px" height="16px"
     viewBox="0 0 16 16" version="1.1">
    <defs>
        <linearGradient id="linear0" gradientUnits="userSpaceOnUse" x1="50.366" y1="2.093" x2="50.366" y2="102.093"
                        gradientTransform="matrix(0.15534,0,0,0.15534,0.15534,-0.466019)">
            <stop offset="0" style="stop-color:rgb(25.490196%,63.137255%,96.078431%);stop-opacity:1;"/>
            <stop offset="1" style="stop-color:rgb(20%,41.568627%,90.588235%);stop-opacity:1;"/>
        </linearGradient>
        <linearGradient id="linear1" gradientUnits="userSpaceOnUse" x1="49.85" y1="10.34" x2="49.85" y2="92.815"
                        gradientTransform="matrix(1,0,0,1,25,25)">
            <stop offset="0" style="stop-color:rgb(25.490196%,63.137255%,96.078431%);stop-opacity:1;"/>
            <stop offset="1" style="stop-color:rgb(20%,41.568627%,90.588235%);stop-opacity:1;"/>
        </linearGradient>
        <linearGradient id="linear2" gradientUnits="userSpaceOnUse" x1="49.85" y1="10.34" x2="49.85" y2="92.815"
                        gradientTransform="matrix(1,0,0,1,25,25)">
            <stop offset="0" style="stop-color:rgb(25.490196%,63.137255%,96.078431%);stop-opacity:1;"/>
            <stop offset="1" style="stop-color:rgb(20%,41.568627%,90.588235%);stop-opacity:1;"/>
        </linearGradient>
    </defs>
    <g id="surface1">
        <path style=" stroke:none;fill-rule:nonzero;fill:url(#linear0);"
              d="M 4.601562 -0.140625 L 11.355469 -0.140625 C 13.78125 -0.140625 15.746094 1.824219 15.746094 4.246094 L 15.746094 11.003906 C 15.746094 13.429688 13.78125 15.394531 11.355469 15.394531 L 4.601562 15.394531 C 2.175781 15.394531 0.210938 13.429688 0.210938 11.003906 L 0.210938 4.246094 C 0.210938 1.824219 2.175781 -0.140625 4.601562 -0.140625 Z M 4.601562 -0.140625 "/>
        <path style="fill-rule:nonzero;fill:url(#linear1);stroke-width:4.1855;stroke-linecap:butt;stroke-linejoin:miter;stroke:url(#linear2);stroke-miterlimit:4;"
              d="M 113.999268 76.583008 C 113.999268 98.183838 96.472168 115.710937 74.846191 115.710937 C 53.220215 115.710937 35.718262 98.183838 35.718262 76.583008 C 35.718262 54.957031 53.220215 37.429932 74.846191 37.429932 C 96.472168 37.429932 113.999268 54.957031 113.999268 76.583008 Z M 113.999268 76.583008 "
              transform="matrix(0.15534,0,0,0.15534,-3.728155,-4.349515)"/>
        <path style=" stroke:none;fill-rule:evenodd;fill:rgb(100%,100%,100%);fill-opacity:1;"
              d="M 4.503906 4.097656 C 4.589844 4.03125 4.699219 4.015625 4.792969 4.023438 L 9.023438 4.03125 C 9.234375 4.03125 9.300781 4.058594 9.4375 4.105469 C 9.648438 4.175781 9.785156 4.289062 9.929688 4.457031 L 9.9375 4.464844 L 10.175781 4.746094 C 10.183594 4.753906 10.183594 4.753906 10.191406 4.753906 C 10.199219 4.785156 10.21875 4.792969 10.234375 4.808594 L 10.234375 4.816406 C 10.269531 4.863281 10.320312 4.929688 10.378906 5 C 10.546875 5.199219 10.769531 5.480469 10.878906 5.59375 C 10.972656 5.703125 11.066406 5.816406 11.160156 5.917969 C 11.957031 6.792969 12.34375 7.550781 11.464844 8.574219 C 12.378906 9.628906 11.90625 11.070312 10.496094 11.070312 L 6.53125 11.070312 C 6.417969 11.070312 6.335938 11.027344 6.265625 10.957031 L 4.460938 8.992188 C 4.335938 8.855469 4.351562 8.664062 4.496094 8.550781 C 4.640625 8.4375 4.851562 8.453125 4.976562 8.582031 L 6.121094 9.828125 C 6.265625 9.988281 6.417969 10.148438 6.5625 10.316406 C 6.707031 10.476562 6.808594 10.4375 7.011719 10.4375 L 10.785156 10.4375 C 11.082031 10.4375 11.328125 10.207031 11.328125 9.917969 L 11.328125 9.40625 C 11.328125 9.117188 11.082031 8.886719 10.785156 8.886719 L 8.496094 8.886719 C 8.472656 8.886719 8.453125 8.886719 8.429688 8.894531 L 6.519531 8.894531 C 6.421875 8.894531 6.324219 8.851562 6.257812 8.773438 L 4.460938 6.824219 C 4.335938 6.695312 4.351562 6.496094 4.496094 6.382812 C 4.640625 6.273438 4.851562 6.289062 4.976562 6.414062 C 5.113281 6.574219 5.257812 6.726562 5.402344 6.878906 C 5.785156 7.292969 6.171875 7.703125 6.546875 8.125 C 6.699219 8.300781 6.800781 8.253906 7.019531 8.253906 L 10.523438 8.253906 C 10.632812 8.253906 10.710938 8.261719 10.777344 8.253906 L 10.785156 8.253906 C 11.082031 8.253906 11.328125 8.023438 11.328125 7.742188 L 11.328125 7.222656 C 11.328125 6.960938 11.117188 6.734375 10.835938 6.710938 C 10.742188 6.695312 10.632812 6.703125 10.558594 6.703125 L 8.496094 6.703125 C 8.488281 6.703125 8.480469 6.703125 8.472656 6.710938 C 7.878906 6.703125 7.285156 6.703125 6.691406 6.703125 L 6.640625 6.703125 C 6.53125 6.710938 6.425781 6.671875 6.351562 6.589844 L 4.460938 4.542969 C 4.34375 4.410156 4.359375 4.207031 4.503906 4.097656 Z M 9.167969 4.679688 C 9.199219 4.679688 9.207031 4.6875 9.226562 4.6875 C 9.234375 4.695312 9.242188 4.695312 9.25 4.695312 C 9.378906 4.746094 9.683594 5.128906 9.964844 5.488281 C 10.082031 5.640625 10.191406 5.785156 10.328125 5.929688 C 10.4375 6.046875 10.394531 6.054688 10.234375 6.054688 C 9.175781 6.046875 8.113281 6.046875 7.054688 6.046875 C 6.785156 6.046875 6.757812 6.078125 6.574219 5.863281 C 6.511719 5.800781 6.453125 5.734375 6.402344 5.679688 C 6.183594 5.441406 5.960938 5.191406 5.734375 4.953125 C 5.699219 4.914062 5.519531 4.753906 5.519531 4.703125 C 5.511719 4.648438 5.714844 4.664062 5.75 4.664062 C 6.082031 4.671875 6.417969 4.664062 6.742188 4.664062 C 7.472656 4.664062 8.207031 4.65625 8.9375 4.671875 C 8.972656 4.671875 9.148438 4.671875 9.167969 4.679688 Z M 9.167969 4.679688 "/>
    </g>
</svg>
