<?xml version="1.0" encoding="UTF-8"?>
<svg xmlns="http://www.w3.org/2000/svg" xmlns:xlink="http://www.w3.org/1999/xlink" width="16px" height="16px" viewBox="0 0 16 16" version="1.1">
<g id="surface1">
<path style=" stroke:none;fill-rule:evenodd;fill:rgb(72.54902%,60.784314%,97.254902%);fill-opacity:0.701961;" d="M 1 16 L 16 16 L 16 9 L 1 9 Z M 1 16 "/>
<path style=" stroke:none;fill-rule:evenodd;fill:rgb(60.392157%,65.490196%,69.019608%);fill-opacity:0.8;" d="M 7 1 L 3 5 L 7 5 Z M 7 1 "/>
<path style=" stroke:none;fill-rule:evenodd;fill:rgb(60.392157%,65.490196%,69.019608%);fill-opacity:0.8;" d="M 8 1 L 8 6 L 3 6 L 3 8 L 13 8 L 13 1 Z M 8 1 "/>
<path style=" stroke:none;fill-rule:evenodd;fill:rgb(13.72549%,12.156863%,12.54902%);fill-opacity:0.701961;" d="M 5 11 L 7 11 L 7 10 L 4 10 L 4 15 L 5 15 L 5 13 L 6.800781 13 L 6.800781 12 L 5 12 Z M 5 11 "/>
<path style=" stroke:none;fill-rule:evenodd;fill:rgb(13.72549%,12.156863%,12.54902%);fill-opacity:0.701961;" d="M 8 10 L 9 10 L 9 15 L 8 15 Z M 8 10 "/>
<path style=" stroke:none;fill-rule:evenodd;fill:rgb(13.72549%,12.156863%,12.54902%);fill-opacity:0.701961;" d="M 11 11 L 13 11 L 13 10 L 10 10 L 10 15 L 11 15 L 11 13 L 12.800781 13 L 12.800781 12 L 11 12 Z M 11 11 "/>
</g>
</svg>
