<svg width="16" height="16" viewBox="0 0 16 16" fill="none" xmlns="http://www.w3.org/2000/svg">
    <mask id="mask0_25_53" style="mask-type:alpha" maskUnits="userSpaceOnUse" x="1" y="1" width="14" height="14">
        <path d="M3.42209 13.2421C3.97117 13.665 4.60768 13.8401 5.32884 13.9216C6.02238 14 6.88907 14 7.95042 14H8.04957C9.11092 14 9.97765 14 10.6712 13.9216C11.3923 13.8401 12.0289 13.665 12.5779 13.2421C12.827 13.0503 13.0503 12.827 13.2421 12.5779C13.665 12.0289 13.8401 11.3923 13.9216 10.6712C14 9.97765 14 9.11092 14 8.04957V7.95042C14 6.88907 14 6.02238 13.9216 5.32884C13.8401 4.60767 13.665 3.97117 13.2421 3.42209C13.0503 3.17298 12.827 2.94973 12.5779 2.75786C12.0289 2.33496 11.3923 2.1599 10.6712 2.07837C9.97761 1.99997 9.11089 1.99999 8.0495 2H7.9505C6.88911 1.99998 6.02238 1.99997 5.32884 2.07837C4.60768 2.15988 3.97117 2.33495 3.42209 2.75786C3.17298 2.94971 2.94973 3.17296 2.75786 3.42209C2.33496 3.97117 2.1599 4.60767 2.07837 5.32884C1.99997 6.02238 1.99999 6.88911 2 7.95049V8.0495C1.99998 9.11089 1.99997 9.97761 2.07837 10.6712C2.15988 11.3923 2.33495 12.0289 2.75786 12.5779C2.94971 12.827 3.17296 13.0503 3.42209 13.2421ZM2.85712 7.99992C2.85712 6.89598 2.85716 6.07001 2.93006 5.42501C3.00291 4.78053 3.14827 4.31975 3.43692 3.94495C3.5837 3.75437 3.75451 3.58357 3.94507 3.4368C4.31983 3.14816 4.78065 3.00279 5.42513 2.92994C6.07013 2.85704 6.89607 2.857 8.00004 2.857C9.10402 2.857 9.93 2.85704 10.575 2.92994C11.2194 3.00279 11.6802 3.14815 12.055 3.4368C12.2456 3.58358 12.4164 3.75439 12.5631 3.94495C12.8518 4.31971 12.9971 4.78053 13.07 5.42501C13.1429 6.07001 13.1429 6.89595 13.1429 7.99992C13.1429 9.1039 13.1429 9.92988 13.07 10.5748C12.9971 11.2193 12.8518 11.6801 12.5631 12.0549C12.4164 12.2454 12.2456 12.4162 12.055 12.563C11.6802 12.8517 11.2194 12.997 10.575 13.0699C9.93 13.1428 9.10402 13.1428 8.00004 13.1428C6.89611 13.1428 6.07013 13.1428 5.42513 13.0699C4.78065 12.997 4.31987 12.8517 3.94507 12.563C3.75449 12.4162 3.58369 12.2454 3.43692 12.0549C3.14828 11.6801 3.00292 11.2193 2.93006 10.5748C2.85716 9.92988 2.85712 9.1039 2.85712 7.99992Z"
              fill="white" stroke="black" stroke-width="0.0626918"/>
    </mask>
    <g mask="url(#mask0_25_53)">
        <path d="M-12.9746 -13.9774H29.8229V28.8202H-12.9746V-13.9774Z" fill="white"/>
    </g>
    <mask id="mask1_25_53" style="mask-type:alpha" maskUnits="userSpaceOnUse" x="3" y="3" width="10" height="10">
        <path d="M10.2665 3H5.73346C4.22381 3 3 4.22381 3 5.73346V10.2665C3 11.7762 4.22381 13 5.73346 13H10.2665C11.7762 13 13 11.7762 13 10.2665V5.73346C13 4.22381 11.7762 3 10.2665 3Z"
              fill="white"/>
    </mask>
    <g mask="url(#mask1_25_53)">
        <path d="M6.92416 8.81842L2.84863 13.3161L11.8998 8.36962L8.85084 7.05916L12.9264 2.56152L4.0304 7.66278L6.92433 8.81828L6.92416 8.81842Z"
              fill="white"/>
        <path d="M6.92416 8.81842L2.84863 13.3161L11.8998 8.36962L8.85084 7.05916L12.9264 2.56152L4.0304 7.66278L6.92433 8.81828L6.92416 8.81842Z"
              stroke="white" stroke-width="0.0486322"/>
    </g>
</svg>
