<?xml version="1.0" encoding="UTF-8"?>
<svg xmlns="http://www.w3.org/2000/svg" width="16px" height="16px"
     viewBox="0 0 16 16" version="1.1">
    <g id="surface1">
        <path style=" stroke:none;fill-rule:evenodd;fill:rgb(100%,100%,100%);fill-opacity:1;"
              d="M 1.355469 14.777344 L 6.347656 9.273438 L 1.640625 7.394531 L 13.582031 0.546875 C 12.433594 0.0351562 10.785156 0.0351562 7.964844 0.0351562 C 4.5625 0.0351562 2.863281 0.0351562 1.691406 0.9375 C 1.394531 1.164062 1.128906 1.429688 0.902344 1.726562 C 0 2.898438 0 4.597656 0 8 C 0 11.402344 0 13.105469 0.902344 14.273438 C 1.039062 14.453125 1.191406 14.621094 1.355469 14.777344 Z M 2.058594 15.308594 C 3.21875 15.964844 4.902344 15.964844 7.964844 15.964844 C 11.367188 15.964844 13.070312 15.964844 14.238281 15.0625 C 14.535156 14.835938 14.800781 14.570312 15.03125 14.273438 C 15.929688 13.105469 15.929688 11.402344 15.929688 8 C 15.929688 4.597656 15.929688 2.898438 15.03125 1.726562 C 14.832031 1.46875 14.605469 1.234375 14.355469 1.03125 L 9.476562 6.414062 L 14.433594 8.542969 Z M 2.058594 15.308594 "/>
    </g>
</svg>
