<svg width="16" height="16" viewBox="0 0 16 16" fill="none" xmlns="http://www.w3.org/2000/svg">
    <mask id="mask0_25_79" style="mask-type:alpha" maskUnits="userSpaceOnUse" x="1" y="1" width="14" height="14">
        <path d="M3.42207 13.2421C3.97115 13.665 4.60765 13.8401 5.32882 13.9216C6.02236 14 6.88905 14 7.95041 14H8.04956C9.11091 14 9.97764 14 10.6711 13.9216C11.3923 13.8401 12.0289 13.665 12.5779 13.2421C12.827 13.0503 13.0503 12.827 13.2421 12.5779C13.665 12.0289 13.8401 11.3923 13.9216 10.6711C14 9.97764 14 9.11091 14 8.04956V7.95041C14 6.88905 14 6.02236 13.9216 5.32882C13.8401 4.60765 13.665 3.97115 13.2421 3.42207C13.0503 3.17296 12.827 2.9497 12.5779 2.75783C12.0289 2.33493 11.3923 2.15984 10.6711 2.07834C9.9776 1.99996 9.11087 1.99996 8.04948 2H7.95048C6.88909 1.99996 6.02236 1.99996 5.32882 2.07834C4.60765 2.15987 3.97115 2.33493 3.42207 2.75783C3.17295 2.94968 2.94969 3.17293 2.75783 3.42203C2.33493 3.97115 2.15984 4.60765 2.07834 5.32885C1.99996 6.0224 1.99996 6.88913 2 7.95052V8.04948C1.99996 9.11087 1.99996 9.9776 2.07834 10.6711C2.15987 11.3923 2.33493 12.0289 2.75783 12.5779C2.94969 12.827 3.17297 13.0503 3.42207 13.2421ZM2.85706 7.99998C2.85706 6.89604 2.85706 6.07006 2.92999 5.4251C3.00281 4.78062 3.14819 4.3198 3.43685 3.94504C3.58363 3.75446 3.75443 3.58367 3.945 3.43689C4.31976 3.14822 4.78058 3.00288 5.42506 2.93002C6.07003 2.85713 6.896 2.85709 7.99995 2.85709C9.10392 2.85709 9.9299 2.85709 10.5749 2.93002C11.2193 3.00284 11.6801 3.14822 12.0549 3.43689C12.2455 3.58366 12.4163 3.75446 12.563 3.94504C12.8517 4.3198 12.997 4.78062 13.0699 5.4251C13.1428 6.07006 13.1428 6.89604 13.1428 7.99998C13.1428 9.10396 13.1428 9.92994 13.0699 10.5749C12.997 11.2193 12.8517 11.6802 12.563 12.0549C12.4163 12.2455 12.2455 12.4163 12.0549 12.5631C11.6801 12.8517 11.2193 12.9971 10.5749 13.0699C9.9299 13.1428 9.10392 13.1429 7.99995 13.1429C6.896 13.1429 6.07003 13.1428 5.42506 13.0699C4.78058 12.9971 4.31976 12.8517 3.945 12.5631C3.75443 12.4163 3.58363 12.2455 3.43685 12.0549C3.14819 11.6802 3.00284 11.2193 2.92999 10.5749C2.85709 9.92994 2.85706 9.10396 2.85706 7.99998Z"
              fill="white" stroke="black" stroke-width="0.0626869"/>
    </mask>
    <g mask="url(#mask0_25_79)">
        <path d="M-12.9749 -13.9775H29.8232V28.8205H-12.9749V-13.9775Z" fill="black"/>
    </g>
    <mask id="mask1_25_79" style="mask-type:alpha" maskUnits="userSpaceOnUse" x="3" y="3" width="10" height="10">
        <path d="M10.2665 3H5.73348C4.22382 3 3 4.22382 3 5.73348V10.2665C3 11.7762 4.22382 13 5.73348 13H10.2665C11.7762 13 13 11.7762 13 10.2665V5.73348C13 4.22382 11.7762 3 10.2665 3Z"
              fill="white"/>
    </mask>
    <g mask="url(#mask1_25_79)">
        <path d="M6.92408 8.81846L2.84839 13.3163L11.8997 8.36987L8.85071 7.0594L12.9263 2.56177L4.03012 7.66295L6.92408 8.81846Z"
              fill="black"/>
        <path d="M6.92408 8.81846L2.84839 13.3163L11.8997 8.36987L8.85071 7.0594L12.9263 2.56177L4.03012 7.66295L6.92408 8.81846Z"
              stroke="black" stroke-width="0.0486322"/>
    </g>
</svg>
