<?xml version="1.0" encoding="UTF-8"?>
<svg width="16" height="16" fill="none" viewBox="0 0 329 329" xmlns="http://www.w3.org/2000/svg">
    <mask id="c" x="0" y="0" width="329" height="329" style="mask-type:alpha" maskUnits="userSpaceOnUse">
        <path d="m40.023 307.04c14.93 11.499 32.237 16.259 51.846 18.476 18.858 2.131 42.424 2.131 71.283 2.131h2.696c28.859 0 52.426 0 71.283-2.131 19.609-2.217 36.917-6.977 51.847-18.476 6.773-5.217 12.843-11.287 18.06-18.06 11.499-14.93 16.259-32.238 18.476-51.847 2.131-18.857 2.131-42.424 2.131-71.283v-2.696c0-28.859 0-52.425-2.131-71.283-2.217-19.609-6.977-36.916-18.476-51.846-5.217-6.7735-11.287-12.844-18.06-18.061-14.93-11.499-32.238-16.259-51.847-18.476-18.858-2.1316-42.425-2.1312-71.285-2.1308h-2.692c-28.86-4.8e-4 -52.427-8.7e-4 -71.285 2.1308-19.609 2.2165-36.916 6.9768-51.846 18.476-6.7735 5.2167-12.844 11.287-18.061 18.061-11.499 14.93-16.259 32.237-18.476 51.846-2.1316 18.858-2.1312 42.425-2.1308 71.285v2.692c-4.8e-4 28.86-8.7e-4 52.427 2.1308 71.285 2.2165 19.609 6.9768 36.917 18.476 51.847 5.2167 6.773 11.287 12.843 18.061 18.06zm-15.362-142.54c0-30.017 1e-3 -52.476 1.9833-70.014 1.9808-17.524 5.9332-30.053 13.782-40.244 3.9911-5.182 8.6354-9.8263 13.817-13.817 10.19-7.8484 22.72-11.801 40.244-13.782 17.538-1.9823 39.996-1.9833 70.014-1.9833s52.477 1e-3 70.014 1.9833c17.523 1.9808 30.053 5.9332 40.243 13.782 5.182 3.9911 9.826 8.6354 13.817 13.817 7.849 10.19 11.801 22.72 13.782 40.244 1.982 17.538 1.983 39.996 1.983 70.014s-1e-3 52.477-1.983 70.014c-1.981 17.523-5.933 30.053-13.782 40.243-3.991 5.182-8.635 9.826-13.817 13.817-10.19 7.849-22.72 11.801-40.243 13.782-17.537 1.982-39.996 1.983-70.014 1.983-30.017 0-52.476-1e-3 -70.014-1.983-17.524-1.981-30.053-5.933-40.244-13.782-5.182-3.991-9.8263-8.635-13.817-13.817-7.8484-10.19-11.801-22.72-13.782-40.243-1.9823-17.537-1.9833-39.996-1.9833-70.014z"
              fill="#fff" stroke="#000" stroke-width="1.2891"/>
    </mask>
    <g mask="url(#c)">
        <rect x="-405.82" y="-433.08" width="1163.7" height="1163.7" fill="url(#pattern0)"/>
        <rect x="-405.82" y="-433.08" width="1163.7" height="1163.7" fill="#fff"/>
    </g>
    <mask id="d" x="25" y="24" width="281" height="281" style="mask-type:alpha" maskUnits="userSpaceOnUse">
        <rect x="25.014" y="24.019" width="280.97" height="280.97" rx="76.802" fill="#fff"/>
    </mask>
    <g mask="url(#d)">
        <path d="m135.27 187.5-114.51 126.37 254.31-138.98-85.666-36.82 114.51-126.37-249.95 143.33 81.311 32.466z"
              fill="#fff"/>
        <path d="m135.27 187.5-114.51 126.37 254.31-138.98-85.666-36.82 114.51-126.37-249.95 143.33 81.311 32.466z"
              stroke="#fff"/>
    </g>
</svg>
