<svg xmlns="http://www.w3.org/2000/svg" width="16" height="16" fill="none" viewBox="0 0 329 329">
    <mask id="a" width="329" height="329" x="0" y="0" maskUnits="userSpaceOnUse" style="mask-type:alpha">
        <path fill="#fff" stroke="#000" stroke-width="1.289"
              d="M40.023 307.038c14.93 11.499 32.237 16.259 51.846 18.476 18.858 2.131 42.424 2.131 71.283 2.131h2.696c28.859 0 52.426 0 71.283-2.131 19.609-2.217 36.917-6.977 51.847-18.476a99.227 99.227 0 0 0 18.06-18.06c11.499-14.93 16.259-32.238 18.476-51.847 2.131-18.857 2.131-42.424 2.131-71.283v-2.696c0-28.859 0-52.425-2.131-71.283-2.217-19.609-6.977-36.916-18.476-51.846a99.206 99.206 0 0 0-18.06-18.061c-14.93-11.499-32.238-16.26-51.847-18.476-18.858-2.131-42.425-2.131-71.285-2.13H163.154c-28.86-.001-52.427-.001-71.285 2.13-19.609 2.217-36.916 6.977-51.846 18.476a99.185 99.185 0 0 0-18.061 18.06C10.463 54.953 5.702 72.26 3.486 91.87c-2.131 18.858-2.131 42.425-2.13 71.285V165.846c-.001 28.86-.001 52.427 2.13 71.285 2.217 19.609 6.977 36.917 18.476 51.847a99.206 99.206 0 0 0 18.06 18.06ZM24.66 164.5c0-30.017 0-52.476 1.983-70.013 1.98-17.524 5.933-30.054 13.782-40.244a75.89 75.89 0 0 1 13.817-13.817c10.19-7.849 22.72-11.801 40.244-13.782 17.537-1.982 39.996-1.983 70.013-1.983 30.018 0 52.477 0 70.014 1.983 17.523 1.98 30.053 5.933 40.243 13.782a75.884 75.884 0 0 1 13.817 13.817c7.849 10.19 11.801 22.72 13.782 40.244 1.982 17.537 1.983 39.996 1.983 70.013 0 30.018-.001 52.477-1.983 70.014-1.981 17.523-5.933 30.053-13.782 40.243a75.879 75.879 0 0 1-13.817 13.817c-10.19 7.849-22.72 11.801-40.243 13.782-17.537 1.982-39.996 1.983-70.014 1.983-30.017 0-52.476-.001-70.013-1.983-17.524-1.981-30.054-5.933-40.244-13.782a75.884 75.884 0 0 1-13.817-13.817c-7.849-10.19-11.801-22.72-13.782-40.243-1.982-17.537-1.983-39.996-1.983-70.014Z"/>
    </mask>
    <g mask="url(#a)">
        <path d="M-405.823-433.085h1163.71v1163.71h-1163.71z"/>
        <path fill="#000" d="M-405.823-433.085h1163.71v1163.71h-1163.71z"/>
    </g>
    <mask id="b" width="281" height="281" x="25" y="24" maskUnits="userSpaceOnUse" style="mask-type:alpha">
        <rect width="280.968" height="280.968" x="25.014" y="24.019" fill="#fff" rx="76.802"/>
    </mask>
    <g mask="url(#b)">
        <path fill="#000"
              d="M135.266 187.5 20.752 313.874l254.312-138.978-85.666-36.82L303.909 11.707 53.955 155.034l81.311 32.466Z"/>
        <path stroke="#000"
              d="M135.266 187.5 20.752 313.874l254.312-138.978-85.666-36.82L303.909 11.707 53.955 155.034l81.311 32.466Z"/>
    </g>
</svg>
