<svg xmlns="http://www.w3.org/2000/svg" width="16px" height="16px" viewBox="0 0 16 22" version="1.1">
    <path style=" stroke:none;fill-rule:evenodd;fill:rgb(95.686275%,68.627451%,23.921569%);fill-opacity:0.701961;"
          d="M 1 18.785156 L 16.003906 18.785156 L 16.003906 11.976562 L 1 11.976562 Z M 1 18.785156 "/>
    <path style=" stroke:none;fill-rule:evenodd;fill:rgb(60.392157%,65.490196%,69.019608%);fill-opacity:0.8;"
          d="M 7 4.195312 L 3 8.085938 L 7 8.085938 Z M 7 4.195312 "/>
    <path style=" stroke:none;fill-rule:evenodd;fill:rgb(60.392157%,65.490196%,69.019608%);fill-opacity:0.8;"
          d="M 8 4.195312 L 8 9.058594 L 3 9.058594 L 3 11.003906 L 13 11.003906 L 13 4.195312 Z M 8 4.195312 "/>
    <path style=" stroke:none;fill-rule:nonzero;fill:rgb(16.862745%,16.470588%,16.078431%);fill-opacity:0.701961;"
          d="M 4.113281 17.804688 L 4.113281 13.769531 L 2.820312 13.769531 L 2.820312 12.949219 L 6.289062 12.949219 L 6.289062 13.769531 L 5 13.769531 L 5 17.804688 Z M 6.886719 17.804688 L 6.886719 12.960938 L 7.773438 12.960938 L 7.773438 16.984375 L 9.964844 16.984375 L 9.964844 17.804688 Z M 10.59375 12.949219 L 12.34375 12.949219 C 12.691406 12.949219 12.949219 12.964844 13.121094 12.996094 C 13.289062 13.027344 13.441406 13.097656 13.578125 13.195312 C 13.710938 13.296875 13.824219 13.433594 13.914062 13.601562 C 14.003906 13.769531 14.046875 13.960938 14.046875 14.167969 C 14.046875 14.394531 13.992188 14.601562 13.882812 14.792969 C 13.773438 14.980469 13.621094 15.125 13.433594 15.21875 C 13.699219 15.304688 13.902344 15.453125 14.046875 15.660156 C 14.191406 15.867188 14.261719 16.113281 14.261719 16.394531 C 14.261719 16.613281 14.214844 16.828125 14.121094 17.039062 C 14.03125 17.246094 13.902344 17.414062 13.742188 17.539062 C 13.582031 17.664062 13.386719 17.742188 13.148438 17.769531 C 13.003906 17.789062 12.648438 17.800781 12.085938 17.804688 L 10.59375 17.804688 Z M 11.480469 13.753906 L 11.480469 14.875 L 12.058594 14.875 C 12.402344 14.875 12.617188 14.867188 12.699219 14.859375 C 12.851562 14.839844 12.96875 14.78125 13.054688 14.683594 C 13.144531 14.589844 13.1875 14.464844 13.1875 14.308594 C 13.1875 14.15625 13.148438 14.035156 13.074219 13.941406 C 13 13.847656 12.886719 13.792969 12.742188 13.773438 C 12.652344 13.761719 12.402344 13.753906 11.988281 13.753906 Z M 11.480469 15.679688 L 11.480469 16.984375 L 12.300781 16.984375 C 12.617188 16.984375 12.820312 16.972656 12.90625 16.953125 C 13.039062 16.925781 13.144531 16.863281 13.226562 16.757812 C 13.308594 16.65625 13.351562 16.519531 13.351562 16.347656 C 13.351562 16.199219 13.320312 16.074219 13.253906 15.972656 C 13.191406 15.871094 13.097656 15.796875 12.980469 15.75 C 12.859375 15.707031 12.597656 15.679688 12.195312 15.679688 Z M 11.480469 15.679688 "/>
</svg>
