<svg width="20" height="20" viewBox="0 0 20 20" fill="none" xmlns="http://www.w3.org/2000/svg">
    <path d="M10 18C14.418 18 18 14.418 18 10C18 5.58203 14.418 2 10 2C5.58203 2 2 5.58203 2 10C2 14.418 5.58203 18 10 18Z"
          fill="#0098EA"/>
    <path d="M12.7304 6.46484H7.26945C6.26164 6.46484 5.62883 7.54687 6.13273 8.42578L9.50383 14.2695C9.72258 14.6523 10.2773 14.6523 10.496 14.2695L13.8671 8.42578C14.371 7.55078 13.7343 6.46484 12.7304 6.46484ZM9.49992 12.5156L8.76554 11.0937L6.99601 7.92578C6.87883 7.72266 7.02336 7.46484 7.26554 7.46484H9.49992V12.5156ZM13.0038 7.92578L11.2304 11.0977L10.496 12.5156V7.46094H12.7304C12.9765 7.46094 13.121 7.72266 13.0038 7.92578Z"
          fill="white"/>
</svg>
