<?xml version="1.0" encoding="UTF-8"?>
<svg xmlns="http://www.w3.org/2000/svg" xmlns:xlink="http://www.w3.org/1999/xlink" width="16px" height="16px" viewBox="0 0 16 16" version="1.1">
<defs>
<linearGradient id="linear0" gradientUnits="userSpaceOnUse" x1="72.93" y1="68.56" x2="243.68" y2="161.22" gradientTransform="matrix(0.0559964,0,0,0.0559208,1.59933,1.599846)">
<stop offset="0" style="stop-color:rgb(14.901961%,50.980392%,88.627451%);stop-opacity:1;"/>
<stop offset="0.28" style="stop-color:rgb(11.764706%,62.745098%,92.941176%);stop-opacity:1;"/>
<stop offset="0.56" style="stop-color:rgb(8.627451%,73.72549%,95.686275%);stop-opacity:1;"/>
<stop offset="0.73" style="stop-color:rgb(8.627451%,76.862745%,97.647059%);stop-opacity:1;"/>
</linearGradient>
</defs>
<g id="surface1">
<path style=" stroke:none;fill-rule:nonzero;fill:url(#linear0);" d="M 7.988281 1.601562 C 9.460938 1.601562 10.933594 1.601562 12.40625 1.601562 C 13.414062 1.605469 14.117188 2.125 14.339844 3.046875 C 14.46875 3.566406 14.386719 4.117188 14.109375 4.578125 C 12.476562 7.378906 10.839844 10.179688 9.210938 12.984375 C 9.015625 13.320312 8.820312 13.660156 8.617188 13.992188 C 8.289062 14.535156 7.6875 14.539062 7.375 13.992188 C 5.832031 11.304688 4.289062 8.625 2.75 5.941406 C 2.457031 5.429688 2.167969 4.921875 1.875 4.414062 C 1.132812 3.125 1.964844 1.632812 3.460938 1.609375 C 4.96875 1.589844 6.480469 1.605469 7.988281 1.605469 Z M 8.667969 11.164062 C 8.738281 11.074219 8.761719 11.046875 8.78125 11.011719 C 10.160156 8.652344 11.535156 6.292969 12.910156 3.929688 C 13.226562 3.382812 12.980469 2.960938 12.355469 2.960938 C 11.226562 2.957031 10.097656 2.96875 8.96875 2.953125 C 8.71875 2.949219 8.664062 3.023438 8.664062 3.261719 C 8.675781 5.792969 8.671875 8.328125 8.671875 10.859375 Z M 7.269531 11.070312 L 7.320312 11.054688 L 7.320312 7.804688 C 7.320312 6.277344 7.320312 4.753906 7.320312 3.226562 C 7.320312 3.117188 7.390625 2.957031 7.15625 2.957031 C 5.945312 2.960938 4.734375 2.949219 3.523438 2.964844 C 3 2.972656 2.824219 3.324219 3.085938 3.785156 C 4.335938 5.96875 5.585938 8.152344 6.84375 10.335938 C 6.984375 10.585938 7.125 10.824219 7.269531 11.070312 Z M 7.269531 11.070312 "/>
</g>
</svg>
