<svg width="16" height="16" viewBox="0 0 16 16" fill="none" xmlns="http://www.w3.org/2000/svg">
<path d="M12 2C13.1046 2 14 2.89543 14 4V12C14 13.1046 13.1046 14 12 14H4C2.89543 14 2 13.1046 2 12V4C2 2.89543 2.89543 2 4 2H12ZM8.20703 7.08789V12.7607H10.7529C11.1718 12.7607 11.5278 12.6922 11.8213 12.5557C12.1149 12.4172 12.34 12.2284 12.4951 11.9902C12.65 11.7504 12.7275 11.4782 12.7275 11.1738C12.7275 10.9006 12.6679 10.6642 12.5498 10.4648C12.4316 10.2636 12.2748 10.1058 12.0791 9.99316C11.8854 9.88068 11.6741 9.81873 11.4453 9.80762V9.75293C11.6539 9.7086 11.8373 9.63029 11.9961 9.51953C12.1549 9.40874 12.2796 9.26958 12.3701 9.10156C12.4606 8.93168 12.5059 8.73851 12.5059 8.52246C12.5058 8.23831 12.4328 7.98839 12.2871 7.77246C12.1431 7.55641 11.9267 7.38761 11.6387 7.26758C11.3525 7.14764 10.9968 7.08789 10.5723 7.08789H8.20703ZM10.4502 10.3037C10.6256 10.3037 10.7768 10.3335 10.9023 10.3926C11.0278 10.4498 11.1251 10.5316 11.1934 10.6387C11.2617 10.7439 11.2959 10.8698 11.2959 11.0156C11.2959 11.2169 11.2242 11.3737 11.082 11.4863C10.9417 11.599 10.723 11.6553 10.4258 11.6553H9.57812V10.3037H10.4502ZM10.3594 8.17676C10.5883 8.17678 10.7705 8.23092 10.9053 8.33984C11.0399 8.44878 11.1074 8.59896 11.1074 8.78906C11.1073 8.9216 11.074 9.03493 11.0078 9.12891C10.9432 9.22303 10.8526 9.29585 10.7363 9.3457C10.62 9.39556 10.4865 9.41992 10.3369 9.41992H9.57812V8.17676H10.3594Z" fill="#5CB13A"/>
</svg>
