<svg xmlns="http://www.w3.org/2000/svg" viewBox="0 0 11.25 11.25">
    <rect y="6" width="11.25" height="5.25" style="fill: #5cb13a;opacity: 0.7020000000000001"/>
    <polygon points="4.5 0 1.5 3 4.5 3 4.5 0" style="fill: #98a6b0;fill-rule: evenodd;opacity: 0.8"/>
    <polygon points="5.25 0 5.25 3.75 1.5 3.75 1.5 5.25 9 5.25 9 0 5.25 0"
             style="fill: #98a6b0;fill-rule: evenodd;opacity: 0.8"/>
    <path d="M293.15,422.46h1.21a1.14,1.14,0,0,1,.8.26.91.91,0,0,1,.29.71.85.85,0,0,1-.41.76.86.86,0,0,1,.64.92,1,1,0,0,1-.35.83,1.42,1.42,0,0,1-.88.28h-1.3v-3.76Zm.67.64V424h.44a.56.56,0,0,0,.38-.12.44.44,0,0,0,.13-.32.39.39,0,0,0-.14-.34.59.59,0,0,0-.39-.1Zm0,2.47h.58a.61.61,0,0,0,.43-.13.47.47,0,0,0,.14-.35c0-.31-.17-.46-.53-.46h-.62Z"
          transform="translate(-292.39 -415.69)" style="fill: #1a1a18;fill-rule: evenodd;opacity: 0.7000000000000001"/>
    <path d="M302.62,425.18l.35.49a1.77,1.77,0,0,1-1.35.54,1.25,1.25,0,0,1-.57-.13,1.48,1.48,0,0,1-.49-.35,1.61,1.61,0,0,1-.34-.59,2.31,2.31,0,0,1-.13-.82,1.93,1.93,0,0,1,.47-1.37,1.62,1.62,0,0,1,1.14-.5,1.67,1.67,0,0,1,.68.11,2,2,0,0,1,.54.33l-.34.5a1.72,1.72,0,0,0-.39-.24,1.1,1.1,0,0,0-.43-.08.88.88,0,0,0-.71.33,1.42,1.42,0,0,0-.27.92,1.53,1.53,0,0,0,.26.93.78.78,0,0,0,.64.34A1.4,1.4,0,0,0,302.62,425.18Z"
          transform="translate(-292.39 -415.69)" style="fill: #1a1a18;fill-rule: evenodd;opacity: 0.7000000000000001"/>
    <path d="M297.85,422.46a1.62,1.62,0,0,1,.61.12,1.57,1.57,0,0,1,.53.33,1.47,1.47,0,0,1,.38.59,2.53,2.53,0,0,1,0,1.66,1.51,1.51,0,0,1-.38.6,1.74,1.74,0,0,1-.53.33,1.64,1.64,0,0,1-1.23,0,1.74,1.74,0,0,1-.53-.33,1.51,1.51,0,0,1-.38-.6,2.37,2.37,0,0,1,0-1.66,1.47,1.47,0,0,1,.38-.59,1.57,1.57,0,0,1,.53-.33,1.63,1.63,0,0,1,.62-.12Zm0,.62a.9.9,0,0,0-.72.32,1.78,1.78,0,0,0,0,1.85.81.81,0,0,0,.7.34.86.86,0,0,0,.72-.33,1.44,1.44,0,0,0,.27-.94,1.48,1.48,0,0,0-.26-.92A.87.87,0,0,0,297.85,423.08Z"
          transform="translate(-292.39 -415.69)" style="fill: #1a1a18;fill-rule: evenodd;opacity: 0.7000000000000001"/>
</svg>
