<?xml version="1.0" encoding="UTF-8"?>
<svg xmlns="http://www.w3.org/2000/svg" xmlns:xlink="http://www.w3.org/1999/xlink" width="16px" height="16px" viewBox="0 0 16 16" version="1.1">
<g id="surface1">
<path style=" stroke:none;fill-rule:nonzero;fill:rgb(0%,53.333333%,80%);fill-opacity:1;" d="M 16 8 C 16 12.417969 12.417969 16 8 16 C 3.582031 16 0 12.417969 0 8 C 0 3.582031 3.582031 0 8 0 C 12.417969 0 16 3.582031 16 8 Z M 16 8 "/>
<path style=" stroke:none;fill-rule:evenodd;fill:rgb(100%,100%,100%);fill-opacity:1;" d="M 5.773438 5.285156 L 10.261719 5.285156 C 10.417969 5.285156 10.578125 5.308594 10.742188 5.386719 C 10.941406 5.480469 11.046875 5.625 11.121094 5.734375 C 11.128906 5.742188 11.132812 5.75 11.136719 5.761719 C 11.226562 5.914062 11.269531 6.082031 11.269531 6.261719 C 11.269531 6.429688 11.230469 6.617188 11.136719 6.777344 C 11.136719 6.78125 11.136719 6.78125 11.136719 6.785156 L 8.300781 11.652344 C 8.238281 11.761719 8.125 11.828125 8 11.824219 C 7.875 11.824219 7.761719 11.757812 7.699219 11.652344 L 4.914062 6.792969 C 4.914062 6.789062 4.914062 6.789062 4.914062 6.789062 C 4.847656 6.683594 4.75 6.519531 4.734375 6.3125 C 4.71875 6.117188 4.761719 5.925781 4.859375 5.757812 C 4.953125 5.589844 5.101562 5.457031 5.277344 5.375 C 5.464844 5.289062 5.652344 5.285156 5.773438 5.285156 Z M 7.652344 5.984375 L 5.773438 5.984375 C 5.652344 5.984375 5.601562 5.988281 5.570312 6.003906 C 5.523438 6.027344 5.484375 6.0625 5.460938 6.105469 C 5.433594 6.152344 5.421875 6.203125 5.425781 6.253906 C 5.429688 6.285156 5.441406 6.316406 5.511719 6.433594 C 5.515625 6.4375 5.515625 6.441406 5.515625 6.441406 L 7.652344 10.171875 Z M 8.347656 5.984375 L 8.347656 10.1875 L 10.53125 6.4375 C 10.558594 6.390625 10.574219 6.328125 10.574219 6.261719 C 10.574219 6.207031 10.5625 6.160156 10.539062 6.113281 C 10.511719 6.074219 10.496094 6.054688 10.484375 6.042969 C 10.472656 6.03125 10.460938 6.023438 10.449219 6.019531 C 10.398438 5.992188 10.34375 5.984375 10.261719 5.984375 Z M 8.347656 5.984375 "/>
</g>
</svg>
