<?xml version="1.0" encoding="UTF-8"?>
<svg xmlns="http://www.w3.org/2000/svg" width="40px" height="40px" viewBox="0 0 40 40" version="1.1">
    <defs>
        <linearGradient id="linear0" gradientUnits="userSpaceOnUse" x1="72.93" y1="68.56" x2="243.68" y2="161.22"
                        gradientTransform="matrix(0.139991,0,0,0.139802,3.998324,3.999616)">
            <stop offset="0" style="stop-color:rgb(14.901961%,50.980392%,88.627451%);stop-opacity:1;"/>
            <stop offset="0.28" style="stop-color:rgb(11.764706%,62.745098%,92.941176%);stop-opacity:1;"/>
            <stop offset="0.56" style="stop-color:rgb(8.627451%,73.72549%,95.686275%);stop-opacity:1;"/>
            <stop offset="0.73" style="stop-color:rgb(8.627451%,76.862745%,97.647059%);stop-opacity:1;"/>
        </linearGradient>
    </defs>
    <g id="surface1">
        <path style=" stroke:none;fill-rule:nonzero;fill:url(#linear0);"
              d="M 19.96875 4.007812 C 23.652344 4.007812 27.335938 4 31.011719 4.007812 C 33.53125 4.015625 35.292969 5.3125 35.847656 7.617188 C 36.175781 8.914062 35.964844 10.296875 35.269531 11.445312 C 31.1875 18.445312 27.101562 25.453125 23.027344 32.460938 C 22.535156 33.296875 22.046875 34.148438 21.546875 34.984375 C 20.726562 36.335938 19.222656 36.34375 18.441406 34.976562 C 14.578125 28.265625 10.71875 21.5625 6.878906 14.851562 C 6.144531 13.578125 5.417969 12.304688 4.6875 11.039062 C 2.835938 7.8125 4.914062 4.078125 8.648438 4.023438 C 12.425781 3.976562 16.203125 4.015625 19.96875 4.015625 Z M 21.671875 27.914062 C 21.84375 27.6875 21.90625 27.617188 21.953125 27.53125 C 25.398438 21.632812 28.839844 15.734375 32.273438 9.828125 C 33.070312 8.460938 32.453125 7.40625 30.886719 7.40625 C 28.0625 7.390625 25.246094 7.421875 22.421875 7.382812 C 21.796875 7.375 21.664062 7.554688 21.664062 8.15625 C 21.6875 14.484375 21.679688 20.820312 21.679688 27.148438 Z M 18.175781 27.679688 L 18.300781 27.640625 L 18.300781 19.507812 C 18.300781 15.695312 18.300781 11.882812 18.300781 8.0625 C 18.300781 7.789062 18.472656 7.390625 17.894531 7.390625 C 14.867188 7.40625 11.839844 7.375 8.8125 7.414062 C 7.496094 7.429688 7.058594 8.3125 7.714844 9.460938 C 10.835938 14.921875 13.96875 20.382812 17.105469 25.84375 C 17.457031 26.460938 17.816406 27.0625 18.175781 27.679688 Z M 18.175781 27.679688 "/>
    </g>
</svg>
